<svg width="74" height="75" viewBox="0 0 74 75" fill="none" xmlns="http://www.w3.org/2000/svg">
<path d="M63.3098 0.955078H10.6277C4.98901 0.955078 0.417969 5.52613 0.417969 11.1648V63.8469C0.417969 69.4856 4.98902 74.0566 10.6277 74.0566H63.3098C68.9485 74.0566 73.5195 69.4856 73.5195 63.8469V11.1648C73.5195 5.52612 68.9485 0.955078 63.3098 0.955078Z" fill="#17C95F"/>
<path d="M46.6189 45.4919L63.0668 36.0253L60.4717 31.5478L44.1152 40.9962L53.4174 24.7128L48.9399 22.1177L39.4915 38.5656V20.6191H34.3927V38.4194L24.926 21.9715L20.5216 24.7128L29.97 41.1607L13.5404 31.5478L10.9453 36.0253L27.3932 45.4919H8.42334V50.6639H30.829C30.5395 49.7056 30.4782 48.6929 30.6502 47.7067C30.8222 46.7205 31.2226 45.7883 31.8193 44.9846C32.4161 44.1809 33.1927 43.528 34.087 43.0781C34.9813 42.6283 35.9684 42.394 36.9695 42.394C37.9706 42.394 38.9577 42.6283 39.852 43.0781C40.7463 43.528 41.5229 44.1809 42.1197 44.9846C42.7164 45.7883 43.1168 46.7205 43.2888 47.7067C43.4608 48.6929 43.3995 49.7056 43.11 50.6639H65.5339V45.4919H46.6189Z" fill="white"/>
</svg>
