<svg width="14" height="16" viewBox="0 0 14 16" fill="none" xmlns="http://www.w3.org/2000/svg">
<path d="M11.3909 8.44193C11.3729 6.49027 13.0299 5.54078 13.1057 5.49658C12.1672 4.16257 10.7127 3.98031 10.2016 3.96577C8.97992 3.84043 7.79492 4.67849 7.17261 4.67849C6.53788 4.67849 5.57958 3.97788 4.54674 3.99847C3.21766 4.01845 1.97428 4.76872 1.29235 5.93378C-0.114987 8.30931 0.934616 11.8003 2.28295 13.7204C2.95743 14.6608 3.74557 15.7108 4.77716 15.6739C5.78639 15.6333 6.16338 15.0466 7.38129 15.0466C8.58803 15.0466 8.94203 15.6739 9.99412 15.6503C11.0773 15.6333 11.7592 14.7056 12.4101 13.7568C13.1895 12.6789 13.5025 11.6174 13.5149 11.5629C13.4895 11.5544 11.4114 10.7811 11.3909 8.44193Z" fill="white"/>
<path d="M9.40349 2.70262C9.9463 2.04076 10.3177 1.14032 10.2146 0.226562C9.42895 0.260473 8.44642 0.75641 7.88063 1.40373C7.38005 1.97415 6.93288 2.90911 7.0484 3.78835C7.93094 3.85254 8.83707 3.35418 9.40349 2.70262Z" fill="white"/>
</svg>
