<svg width="141" height="93" viewBox="0 0 141 93" fill="none" xmlns="http://www.w3.org/2000/svg">
<g clip-path="url(#clip0_128_351)">
<g filter="url(#filter0_d_128_351)">
<path d="M95.2954 65.7814C95.5031 65.5834 95.7108 65.3822 95.912 65.1777L96.1263 64.9602C96.2756 64.8109 96.4249 64.6583 96.571 64.5025C96.6521 64.4214 96.7268 64.3402 96.8047 64.2591L97.2331 63.8014L97.3759 63.6456L97.4344 63.5807C97.6811 63.3048 97.9245 63.0289 98.1647 62.7498L98.3075 62.5842C98.5153 62.3375 98.723 62.0876 98.9242 61.8377L99.0606 61.6721C99.291 61.3865 99.515 61.0976 99.7357 60.8055C99.7844 60.7438 99.8299 60.6789 99.8786 60.614C100.073 60.3521 100.265 60.0892 100.453 59.8252C100.486 59.7765 100.521 59.7311 100.554 59.6856C100.765 59.387 100.966 59.0851 101.167 58.7833L101.307 58.569C101.492 58.2867 101.67 58.001 101.846 57.7154L101.904 57.6245C102.092 57.2999 102.274 57.0013 102.453 56.6864C102.495 56.6085 102.54 56.5339 102.582 56.4592C102.758 56.1346 102.933 55.81 103.102 55.4854C103.238 55.2258 103.368 54.9628 103.494 54.7032L103.514 54.6642L103.598 54.4792C103.692 54.2812 103.783 54.0865 103.874 53.8885C103.916 53.7878 103.959 53.6905 104.004 53.5931C104.079 53.4178 104.153 53.2458 104.225 53.0705C104.27 52.9666 104.312 52.8628 104.355 52.7621C104.423 52.5901 104.488 52.4213 104.553 52.2493L104.67 51.9474C104.738 51.7656 104.803 51.5806 104.864 51.3989L104.936 51.2009V51.1554C105.052 50.8027 105.161 50.4489 105.26 50.094C105.283 50.0226 105.302 49.9512 105.325 49.8798C105.423 49.526 105.517 49.1754 105.601 48.8281C105.601 48.8119 105.601 48.7989 105.601 48.7827L105.63 48.6463C105.685 48.4029 105.741 48.1627 105.789 47.9258L105.838 47.6726C105.893 47.3934 105.942 47.1143 105.984 46.8384C105.986 46.8244 105.986 46.8102 105.984 46.7962C106.026 46.5268 106.062 46.2574 106.091 45.9912L106.12 45.7478C106.14 45.5595 106.159 45.368 106.176 45.1797C106.176 45.1343 106.176 45.0888 106.176 45.0434C106.176 44.998 106.176 44.946 106.176 44.8973C106.176 44.7351 106.198 44.5728 106.205 44.4072C106.205 44.3163 106.205 44.2254 106.205 44.1346C106.205 43.9528 106.205 43.771 106.205 43.5892C106.205 43.5341 106.205 43.4789 106.205 43.4205V43.3848C106.205 43.1413 106.205 42.9011 106.205 42.6642C106.206 42.6393 106.206 42.6144 106.205 42.5895C106.205 42.3753 106.205 42.161 106.172 41.9403C106.174 41.9241 106.174 41.9078 106.172 41.8916C106.172 41.8202 106.172 41.7521 106.156 41.6839L106.117 41.2457C106.117 41.1516 106.094 41.0607 106.085 40.9666C106.075 40.8724 106.052 40.6939 106.033 40.5608C106.033 40.5251 106.033 40.4862 106.033 40.4505L106.004 40.2687C105.984 40.1421 105.965 40.0188 105.942 39.8922C105.919 39.7656 105.906 39.6974 105.89 39.6C105.874 39.5027 105.841 39.3534 105.815 39.23C105.815 39.1781 105.796 39.1262 105.783 39.0775L105.754 38.9411L105.666 38.5776C105.643 38.4802 105.617 38.3861 105.595 38.2919C105.572 38.1978 105.526 38.0485 105.491 37.9284C105.491 37.8667 105.458 37.8018 105.439 37.7401C105.432 37.7116 105.423 37.6834 105.413 37.6558C105.374 37.5292 105.335 37.4091 105.296 37.2857L105.208 37.0261C105.166 36.8962 105.117 36.7696 105.072 36.6398C105.046 36.5749 105.023 36.5099 105.001 36.445V36.4061C104.936 36.2373 104.867 36.0815 104.799 35.9062C104.799 35.8673 104.77 35.8283 104.754 35.7926C104.667 35.587 104.576 35.3858 104.481 35.1889V35.1694L104.462 35.1337C104.296 34.7831 104.137 34.4358 103.929 34.0983L98.34 24.0977C98.5283 24.4222 98.7068 24.7825 98.8723 25.1331L98.9015 25.1883C98.9957 25.3895 99.0865 25.5875 99.1709 25.792L99.2196 25.9056C99.2878 26.0712 99.356 26.2302 99.4209 26.4055C99.4501 26.4834 99.4793 26.5613 99.5053 26.6392C99.554 26.769 99.6026 26.8956 99.6448 27.0255L99.7325 27.2851L99.8493 27.6552L99.9272 27.9311C99.9629 28.0512 99.9954 28.1712 100.028 28.2913C100.06 28.4114 100.077 28.4829 100.103 28.577C100.128 28.6711 100.161 28.8172 100.187 28.9405C100.213 29.0639 100.232 29.132 100.252 29.2294C100.271 29.3268 100.301 29.4761 100.323 29.5994C100.346 29.7228 100.362 29.7942 100.378 29.8916C100.395 29.9889 100.421 30.1415 100.44 30.2681C100.46 30.3947 100.469 30.4628 100.482 30.5602C100.495 30.6576 100.518 30.8296 100.534 30.966C100.55 31.1023 100.557 31.1542 100.567 31.2451L100.606 31.6833L100.625 31.9397C100.625 32.1507 100.651 32.3649 100.658 32.5889C100.658 32.6149 100.658 32.6409 100.658 32.6668C100.658 32.9038 100.658 33.144 100.658 33.3874C100.658 33.4556 100.658 33.5237 100.658 33.5919C100.658 33.7737 100.658 33.9554 100.658 34.1372C100.658 34.2281 100.658 34.3222 100.658 34.4131C100.658 34.5754 100.648 34.7377 100.628 34.9C100.628 34.9941 100.628 35.0883 100.606 35.1824C100.606 35.3707 100.573 35.5622 100.55 35.7504C100.55 35.8316 100.55 35.9127 100.524 35.9939C100.492 36.26 100.456 36.5294 100.417 36.7988V36.8443C100.375 37.1234 100.323 37.4026 100.271 37.6817C100.271 37.7661 100.239 37.8505 100.219 37.9349C100.171 38.1751 100.119 38.412 100.064 38.6555C100.064 38.7139 100.038 38.7756 100.021 38.8372C99.937 39.1846 99.8428 39.5351 99.7422 39.8889C99.7227 39.9603 99.7032 40.0317 99.6805 40.1032C99.5767 40.457 99.4663 40.8108 99.3559 41.1646C99.33 41.2457 99.3008 41.3269 99.2716 41.408C99.2099 41.5898 99.145 41.7716 99.0768 41.9566L98.9599 42.2584C98.895 42.4305 98.8301 42.583 98.7587 42.7713C98.7198 42.8751 98.6776 42.979 98.6321 43.0959C98.5607 43.2711 98.4861 43.4432 98.4114 43.6185C98.366 43.7158 98.3238 43.8132 98.2783 43.9138C98.1907 44.1118 98.0998 44.3098 98.0057 44.5046C97.97 44.5792 97.9375 44.6539 97.8985 44.7286C97.7752 44.9882 97.6421 45.2511 97.509 45.5141C97.3403 45.8386 97.165 46.1632 96.9865 46.4878L96.8599 46.715C96.6813 47.0396 96.4996 47.3415 96.3113 47.6531L96.2529 47.744C96.0776 48.0296 95.8958 48.3153 95.714 48.5977C95.6654 48.6691 95.6199 48.7405 95.5745 48.8119C95.3733 49.1138 95.1688 49.4156 94.961 49.7142L94.8604 49.8538C94.6721 50.12 94.4806 50.3796 94.2859 50.6426L94.1398 50.8373C93.9223 51.1262 93.6984 51.4151 93.4679 51.7007L93.3316 51.8695C93.1303 52.1195 92.9226 52.3661 92.7148 52.6128L92.572 52.7784C92.3318 53.0575 92.0884 53.3367 91.8417 53.6093C91.7736 53.684 91.7054 53.7554 91.6405 53.83C91.4977 53.9826 91.3548 54.1546 91.212 54.2877L90.9815 54.5312L90.5336 54.9921L90.3194 55.2063C90.1181 55.4075 89.9136 55.6055 89.7091 55.8035L89.6507 55.862C89.4235 56.0794 89.1963 56.2904 88.9659 56.5111L88.8263 56.6377C88.493 56.9472 88.1522 57.249 87.8038 57.5433C87.4597 57.8387 87.1059 58.1308 86.7489 58.4197L86.5996 58.5398C86.3107 58.7703 86.0186 59.0007 85.7232 59.2247L85.5284 59.374C85.272 59.5688 85.0123 59.7603 84.7494 59.9518L84.5742 60.0784C84.2983 60.2764 84.0191 60.4744 83.7367 60.6691L83.5517 60.7925C83.3245 60.9483 83.094 61.1008 82.8636 61.2534C82.7759 61.3118 82.6883 61.3703 82.5974 61.4254C82.3962 61.5585 82.1949 61.6851 81.9904 61.8117L81.7632 61.9578L80.9258 62.4641L80.8673 62.4966C80.322 62.8212 79.767 63.1458 79.2087 63.4379L79.0496 63.5223C78.5238 63.8058 77.9915 64.0784 77.4526 64.3402L77.3455 64.3954C76.7872 64.6681 76.2225 64.931 75.6577 65.1809L75.5895 65.2101C75.0474 65.4471 74.5021 65.6776 73.9665 65.895L73.8043 65.9567C73.2752 66.1644 72.7461 66.3657 72.2105 66.5539L72.045 66.6124C71.4835 66.8071 70.9187 66.9954 70.3506 67.1674L70.2825 67.1901C69.6895 67.3719 69.0934 67.5407 68.494 67.6965L68.2311 67.7647L67.6208 67.914C67.5137 67.9432 67.4034 67.9691 67.2963 67.9919C67.0983 68.0406 66.9035 68.0828 66.7055 68.125C66.5984 68.1477 66.4945 68.1736 66.3809 68.1931C66.105 68.2548 65.8259 68.31 65.5467 68.3619L65.4363 68.3846C65.1117 68.4431 64.8099 68.4982 64.495 68.5469L64.2484 68.5859C63.9789 68.6281 63.7128 68.6703 63.4466 68.706L63.1739 68.7417C62.8494 68.7871 62.5021 68.8261 62.1677 68.8618H62.0898C61.7263 68.8975 61.366 68.9299 61.0025 68.9559L60.7688 68.9754C60.3955 69.0014 60.0254 69.0208 59.6522 69.0338H59.4801C59.003 69.05 58.5258 69.0598 58.0519 69.0565H57.8929C57.419 69.0565 56.9451 69.0403 56.4744 69.0176H56.3121C55.8642 68.9916 55.4162 68.9624 54.9683 68.9202H54.8645C54.4003 68.8747 53.9361 68.8196 53.4752 68.7547C45.5942 67.6511 39.8749 63.8469 36.8984 58.5236L42.4879 68.5242C45.4643 73.8442 51.1836 77.6517 59.0647 78.7553C59.5256 78.8202 59.9897 78.8754 60.4571 78.9208H60.5578C61.0057 78.963 61.4536 78.9922 61.9016 79.0182H62.0054H62.0639C62.5345 79.0409 63.0084 79.0506 63.4823 79.0571H63.6414C64.1153 79.0571 64.5924 79.0571 65.0696 79.0344H65.1702H65.2448C65.6149 79.0344 65.9849 78.9987 66.3582 78.9727H66.5919C66.9554 78.9468 67.3157 78.9143 67.6793 78.8786H67.7377H67.7571C68.0817 78.8429 68.4258 78.804 68.7634 78.7585L69.0361 78.7228L69.8345 78.6027L70.0033 78.58L70.0845 78.5637C70.4091 78.5118 70.7142 78.4599 71.0258 78.4014L71.1394 78.3787L71.9736 78.21L72.084 78.1872L72.2884 78.1418L72.8792 78.0087L73.2038 77.9308L73.814 77.7815L74.0217 77.7263H74.0737C74.6709 77.5705 75.2671 77.4017 75.8622 77.2199H75.8849L75.9336 77.2037C76.4984 77.0284 77.0631 76.8434 77.6279 76.6487L77.6993 76.6227L77.7902 76.5902C78.3258 76.3987 78.8549 76.2007 79.384 75.993L79.4748 75.9605L79.5463 75.9313C80.0948 75.7106 80.6401 75.4834 81.1692 75.2432H81.2179H81.2374C81.8054 74.99 82.3669 74.7304 82.9252 74.4577L82.9642 74.4382L83.0324 74.4025C83.5712 74.1385 84.1035 73.8659 84.6293 73.5846L84.7137 73.5424L84.7884 73.4969C85.3467 73.195 85.9017 72.8834 86.447 72.5621L86.4827 72.5426L86.5087 72.5264C86.7878 72.3608 87.067 72.2018 87.3429 72.02L87.5701 71.874L88.1803 71.4877L88.3102 71.4033L88.4432 71.3157C88.6737 71.1631 88.9041 71.0106 89.1314 70.8547L89.3164 70.7314C89.5988 70.5366 89.8779 70.3386 90.1538 70.1406L90.2123 70.1017L90.3324 70.0108C90.592 69.8226 90.8517 69.631 91.1081 69.4363L91.3029 69.287C91.5983 69.063 91.8904 68.8326 92.1793 68.6021L92.2377 68.5566L92.3286 68.482C92.6856 68.1931 93.0395 67.901 93.3835 67.6056C93.7276 67.3102 94.0684 67.0084 94.4027 66.7033L94.4871 66.6286L94.5423 66.5767C94.7727 66.3657 95.0032 66.1515 95.2272 65.9275L95.2954 65.7814Z" fill="url(#paint0_linear_128_351)"/>
<path d="M81.8058 13.8581C65.3005 11.5406 45.5784 21.9437 37.7526 37.0922C29.9267 52.2408 36.9574 66.3961 53.4627 68.7105C69.9681 71.0248 89.6901 60.6249 97.5192 45.4796C105.348 30.3343 98.308 16.1725 81.8058 13.8581Z" fill="url(#paint1_linear_128_351)"/>
<path d="M79.5022 18.3306C65.6812 16.3831 49.1661 25.1016 42.6127 37.7865C36.0592 50.4715 41.9635 62.3255 55.7683 64.2633C69.573 66.2011 86.1043 57.4858 92.648 44.8074C99.1917 32.1289 93.3199 20.2717 79.5022 18.3306Z" fill="#FFB91C"/>
<path d="M78.9052 19.4737C65.7723 17.63 50.0784 25.907 43.8496 37.9753C37.6207 50.0435 43.2198 61.2905 56.3495 63.1342C69.4791 64.9778 85.1762 56.7008 91.4051 44.6326C97.634 32.5644 92.0348 21.3141 78.9052 19.4737Z" fill="url(#paint2_linear_128_351)"/>
<path d="M75.0576 28.6562L72.4609 33.5802L69.9063 38.4003L67.2934 43.3276L65.216 47.2486C65.9401 47.2666 66.6558 47.09 67.2884 46.7372C67.921 46.3844 68.4473 45.8682 68.8124 45.2427C69.2669 44.3825 68.8774 43.5743 67.9426 43.4282L67.2934 43.3276L69.9063 38.4036L70.5555 38.501C74.4506 39.1047 76.0735 42.4999 74.1942 46.0704C72.1006 50.0206 66.9493 52.7179 62.603 52.1824L60.9639 55.2692L55.5854 54.4383L57.2084 51.3547L53.2679 50.7477C51.184 50.4231 50.3109 48.6119 51.3203 46.7033L52.2584 44.9311L57.6401 45.762L57.4745 46.0866L59.8181 46.4469L61.902 42.5161L64.4987 37.5889L67.0467 32.7784C66.3217 32.7622 65.6056 32.9402 64.9726 33.2941C64.3396 33.648 63.8129 34.1648 63.447 34.7909L62.9763 35.677C62.5219 36.5339 62.9147 37.3454 63.8462 37.4882L64.4954 37.5889L61.8987 42.5161L61.2495 42.4155C57.3544 41.8118 55.7315 38.4166 57.6141 34.8461L58.0848 33.96C60.1784 30.0097 65.3296 27.3091 69.6791 27.8447L70.9483 25.4492L76.3299 26.2802L75.0576 28.6562ZM79.8777 35.32L80.9424 33.3075C81.9551 31.3989 81.0819 29.5845 78.9948 29.2631L75.0543 28.6562L72.4576 33.5802L74.8011 33.9437L74.509 34.4923L79.8777 35.32Z" fill="white"/>
<path d="M65.5268 46.6377L67.2676 43.3473L67.5205 42.8739H67.4849L66.8365 42.7734L64.7617 46.6896C65.0179 46.7012 65.2745 46.6838 65.5268 46.6377Z" fill="#BF7200"/>
<path d="M74.6136 28.0635L72.0039 32.9908L74.6136 28.0635L75.3017 28.1706L76.3145 26.2556L75.6296 26.1484L74.6136 28.0635Z" fill="#BF7200"/>
<path d="M68.495 43.6426C68.4267 43.4308 68.2984 43.2434 68.1258 43.103C67.9532 42.9626 67.7436 42.8753 67.5224 42.8516L67.2695 43.3249L67.9179 43.4254C68.1238 43.4549 68.3207 43.529 68.495 43.6426Z" fill="#BF7200"/>
<path d="M74.3554 33.3583L72.7021 33.1055L72.4492 33.5788L74.1026 33.8349L74.3554 33.3583Z" fill="#BF7200"/>
<path d="M63.03 34.1866L62.5599 35.0813C62.2163 35.7297 62.3589 36.3456 62.8484 36.6731C62.7611 36.3303 62.8124 35.9669 62.9911 35.6616L63.4611 34.7766C63.7623 34.2655 64.1718 33.8266 64.6607 33.4906C65.1496 33.1545 65.7062 32.9296 66.2913 32.8315L66.6155 32.2026C65.8952 32.1835 65.1829 32.3573 64.5524 32.7062C63.922 33.055 63.3963 33.5662 63.03 34.1866Z" fill="#BF7200"/>
<path d="M66.8438 42.7363L69.4405 37.8091L70.0896 37.9097H70.1286L72.4299 33.5634L72.6831 33.0895L71.9982 32.9824L69.4437 37.8026L66.8438 42.7363Z" fill="#BF7200"/>
<path d="M80.6808 30.0547C81.0671 30.7948 81.0476 31.749 80.5283 32.7325L79.4604 34.745L74.7669 34.0212L74.5137 34.4983L79.8954 35.326L80.96 33.3136C81.6286 32.0509 81.4696 30.8272 80.6808 30.0547Z" fill="#BF7200"/>
<path d="M73.8843 40.1836C74.7704 41.6085 74.7996 43.5204 73.7544 45.4874C71.6641 49.4344 66.5096 52.1317 62.1634 51.5994L60.5405 54.6862L55.8469 53.9592L55.5938 54.4363L60.9722 55.2672L62.6113 52.1804C66.9576 52.716 72.1088 50.0187 74.2024 46.0684C75.3806 43.819 75.1729 41.641 73.8843 40.1836Z" fill="#BF7200"/>
<path d="M56.7639 50.7636L52.8201 50.1566C52.197 50.0771 51.6152 49.8021 51.1582 49.3711C51.3724 49.7505 51.6747 50.0727 52.0397 50.3105C52.4047 50.5484 52.8215 50.6949 53.2551 50.7376L56.501 51.2407L56.7639 50.7636Z" fill="#BF7200"/>
<path d="M63.8216 37.4688L61.4648 41.9133L63.8216 37.4688Z" fill="#BF7200"/>
<path d="M57.4902 40.1328C58.2067 41.2869 59.4872 42.1168 61.2183 42.4021L61.468 41.9256L60.8196 41.8251C59.5449 41.6716 58.3655 41.0721 57.4902 40.1328Z" fill="#BF7200"/>
</g>
</g>
<defs>
<filter id="filter0_d_128_351" x="25.0322" y="-5.30033" width="109.741" height="103.611" filterUnits="userSpaceOnUse" color-interpolation-filters="sRGB">
<feFlood flood-opacity="0" result="BackgroundImageFix"/>
<feColorMatrix in="SourceAlpha" type="matrix" values="0 0 0 0 0 0 0 0 0 0 0 0 0 0 0 0 0 0 127 0" result="hardAlpha"/>
<feOffset dx="9.52249" dy="0.209495"/>
<feGaussianBlur stdDeviation="9.52249"/>
<feComposite in2="hardAlpha" operator="out"/>
<feColorMatrix type="matrix" values="0 0 0 0 0 0 0 0 0 0 0 0 0 0 0 0 0 0 0.1 0"/>
<feBlend mode="normal" in2="BackgroundImageFix" result="effect1_dropShadow_128_351"/>
<feBlend mode="normal" in="SourceGraphic" in2="effect1_dropShadow_128_351" result="shape"/>
</filter>
<linearGradient id="paint0_linear_128_351" x1="38.7176" y1="79.7527" x2="106.028" y2="37.9662" gradientUnits="userSpaceOnUse">
<stop stop-color="#FF9500"/>
<stop offset="0.29" stop-color="#CD7D29"/>
<stop offset="0.91" stop-color="#F7BB57"/>
<stop offset="1" stop-color="#FEC55E"/>
</linearGradient>
<linearGradient id="paint1_linear_128_351" x1="30.5196" y1="66.8804" x2="90.7127" y2="25.4009" gradientUnits="userSpaceOnUse">
<stop stop-color="#F28F3B"/>
<stop offset="0.49" stop-color="#F7A74B"/>
<stop offset="1" stop-color="#FEC55E"/>
</linearGradient>
<linearGradient id="paint2_linear_128_351" x1="67.6273" y1="19.2168" x2="67.6273" y2="63.3911" gradientUnits="userSpaceOnUse">
<stop stop-color="#FCC038"/>
<stop offset="1" stop-color="#F0A700"/>
</linearGradient>
<clipPath id="clip0_128_351">
<rect width="140" height="91.7979" fill="white" transform="translate(0.207031 0.773438)"/>
</clipPath>
</defs>
</svg>
