<svg width="24" height="24" viewBox="0 0 24 24" fill="none" xmlns="http://www.w3.org/2000/svg">
<path d="M1.14637 20.869C0.560585 21.4548 0.560585 22.4046 1.14637 22.9903C1.73216 23.5761 2.6819 23.5761 3.26769 22.9903L1.14637 20.869ZM13.2677 12.9903C13.8535 12.4046 13.8535 11.4548 13.2677 10.869C12.6819 10.2832 11.7322 10.2832 11.1464 10.869L13.2677 12.9903ZM11.1464 10.869C10.5606 11.4548 10.5606 12.4046 11.1464 12.9903C11.7322 13.5761 12.6819 13.5761 13.2677 12.9903L11.1464 10.869ZM23.2677 2.99035C23.8535 2.40456 23.8535 1.45481 23.2677 0.869027C22.6819 0.283241 21.7322 0.283241 21.1464 0.869027L23.2677 2.99035ZM13.2677 10.869C12.6819 10.2832 11.7322 10.2832 11.1464 10.869C10.5606 11.4548 10.5606 12.4046 11.1464 12.9903L13.2677 10.869ZM21.1464 22.9903C21.7322 23.5761 22.6819 23.5761 23.2677 22.9903C23.8535 22.4046 23.8535 21.4548 23.2677 20.869L21.1464 22.9903ZM11.1464 12.9903C11.7322 13.5761 12.6819 13.5761 13.2677 12.9903C13.8535 12.4046 13.8535 11.4548 13.2677 10.869L11.1464 12.9903ZM3.26769 0.869027C2.6819 0.283241 1.73216 0.283241 1.14637 0.869027C0.560585 1.45481 0.560585 2.40456 1.14637 2.99035L3.26769 0.869027ZM3.26769 22.9903L13.2677 12.9903L11.1464 10.869L1.14637 20.869L3.26769 22.9903ZM13.2677 12.9903L23.2677 2.99035L21.1464 0.869027L11.1464 10.869L13.2677 12.9903ZM11.1464 12.9903L21.1464 22.9903L23.2677 20.869L13.2677 10.869L11.1464 12.9903ZM13.2677 10.869L3.26769 0.869027L1.14637 2.99035L11.1464 12.9903L13.2677 10.869Z" fill="#383C43"/>
</svg>
