<svg width="180" height="181" viewBox="0 0 180 181" fill="none" xmlns="http://www.w3.org/2000/svg">
<path d="M163.702 123.922C163.214 125.009 162.421 125.735 161.325 126.101C160.232 126.478 159.127 126.415 158.01 125.913C156.893 125.41 156.109 124.624 155.658 123.553C155.212 122.494 155.233 121.421 155.722 120.334L157.121 117.221L165.102 120.809L163.702 123.922ZM156.725 120.785C156.359 121.598 156.345 122.391 156.683 123.164C157.021 123.937 157.615 124.515 158.466 124.898C159.318 125.281 160.144 125.342 160.947 125.081C161.749 124.821 162.333 124.284 162.699 123.471L163.622 121.419L157.648 118.733L156.725 120.785Z" fill="white"/>
<path d="M151.63 129.711C151.408 128.837 151.528 128.005 151.992 127.214C152.455 126.423 153.122 125.91 153.993 125.677C154.86 125.451 155.692 125.571 156.49 126.039C157.288 126.506 157.801 127.173 158.027 128.04C158.249 128.914 158.128 129.746 157.665 130.537C157.202 131.328 156.535 131.84 155.664 132.074C154.793 132.307 153.959 132.19 153.16 131.723C152.362 131.255 151.852 130.585 151.63 129.711ZM152.909 127.751C152.593 128.29 152.511 128.85 152.663 129.432C152.814 130.013 153.164 130.464 153.71 130.784C154.257 131.105 154.821 131.189 155.402 131.037C155.984 130.885 156.432 130.539 156.748 130C157.06 129.468 157.14 128.911 156.988 128.33C156.836 127.748 156.487 127.297 155.94 126.977C155.394 126.657 154.83 126.573 154.248 126.725C153.667 126.877 153.22 127.219 152.909 127.751Z" fill="white"/>
<path d="M150.588 140.536L149.906 141.446L146.068 136.146L146.736 135.256L151.313 136.861L148.491 132.916L149.158 132.026L155.321 134.226L154.638 135.136L150.013 133.386L152.928 137.416L152.298 138.256L147.603 136.578L150.588 140.536Z" fill="white"/>
<path d="M146.753 145.01C146.25 145.543 145.677 145.81 145.035 145.811C144.398 145.818 143.792 145.55 143.216 145.007L140.425 142.373L141.171 141.582L143.917 144.173C144.287 144.522 144.666 144.69 145.055 144.679C145.45 144.673 145.813 144.495 146.145 144.143C146.516 143.749 146.692 143.314 146.673 142.837C146.659 142.366 146.397 141.89 145.888 141.41L143.479 139.136L144.225 138.345L148.771 142.634L148.025 143.425L147.37 142.808C147.582 143.615 147.377 144.349 146.753 145.01Z" fill="white"/>
<path d="M139.277 143.397L145.491 150.079L144.694 150.82L138.481 144.137L139.277 143.397Z" fill="white"/>
<path d="M133.777 149.112C133.877 148.216 134.284 147.48 134.997 146.904C135.71 146.327 136.515 146.084 137.412 146.173C138.303 146.267 139.039 146.674 139.62 147.393C140.202 148.112 140.446 148.917 140.351 149.808C140.251 150.704 139.844 151.44 139.131 152.016C138.418 152.593 137.613 152.837 136.716 152.747C135.819 152.658 135.08 152.254 134.498 151.535C133.916 150.816 133.676 150.008 133.777 149.112ZM135.665 147.73C135.179 148.123 134.904 148.618 134.841 149.216C134.778 149.814 134.945 150.359 135.344 150.851C135.742 151.344 136.24 151.622 136.838 151.685C137.435 151.748 137.977 151.583 138.463 151.19C138.943 150.803 139.214 150.31 139.277 149.712C139.341 149.114 139.173 148.569 138.775 148.077C138.377 147.584 137.879 147.306 137.281 147.243C136.683 147.18 136.145 147.342 135.665 147.73Z" fill="white"/>
<path d="M130.926 157.641L130.015 158.235L126.602 152.999L127.513 152.405L128.1 153.306C128.103 152.319 128.538 151.543 129.404 150.979C130.137 150.501 130.934 150.359 131.797 150.553C132.664 150.754 133.348 151.238 133.848 152.006C134.349 152.774 134.514 153.592 134.343 154.459C134.177 155.333 133.727 156.009 132.994 156.487C132.128 157.051 131.243 157.136 130.339 156.74L130.926 157.641ZM129.862 151.934C129.331 152.279 129.004 152.746 128.88 153.334C128.761 153.93 128.874 154.492 129.22 155.023C129.565 155.554 130.032 155.881 130.621 156.005C131.213 156.136 131.775 156.028 132.305 155.682C132.829 155.341 133.151 154.873 133.27 154.278C133.394 153.69 133.283 153.13 132.937 152.6C132.591 152.069 132.122 151.738 131.529 151.608C130.941 151.484 130.385 151.592 129.862 151.934Z" fill="white"/>
<path d="M125.195 163.63L124.23 164.13L120.203 156.362L121.168 155.861L121.663 156.816C121.764 155.834 122.274 155.105 123.191 154.63C123.968 154.227 124.776 154.165 125.615 154.444C126.457 154.73 127.09 155.279 127.512 156.093C127.933 156.907 128.016 157.737 127.76 158.583C127.508 159.437 126.994 160.065 126.217 160.467C125.299 160.943 124.41 160.939 123.55 160.456L125.195 163.63ZM123.552 155.625C122.99 155.917 122.618 156.349 122.436 156.922C122.258 157.502 122.315 158.074 122.606 158.636C122.898 159.198 123.33 159.57 123.903 159.752C124.48 159.941 125.049 159.89 125.612 159.598C126.166 159.311 126.533 158.877 126.711 158.297C126.892 157.724 126.838 157.156 126.546 156.594C126.255 156.031 125.821 155.656 125.244 155.467C124.671 155.285 124.107 155.338 123.552 155.625Z" fill="white"/>
<path d="M112.475 164.113C112.035 164.059 111.647 163.9 111.312 163.635C110.968 163.372 110.722 163.02 110.573 162.578C110.349 161.915 110.395 161.279 110.709 160.672C111.023 160.065 111.516 159.648 112.187 159.422L115.764 158.216L118.559 166.508L115.242 167.626C114.595 167.844 113.973 167.812 113.376 167.529C112.78 167.247 112.374 166.786 112.158 166.146C111.911 165.412 112.016 164.734 112.475 164.113ZM114.895 166.595L117.11 165.849L116.256 163.314L114.041 164.06C113.693 164.177 113.442 164.398 113.288 164.723C113.133 165.048 113.116 165.388 113.236 165.743C113.353 166.091 113.575 166.345 113.903 166.508C114.225 166.681 114.555 166.71 114.895 166.595ZM112.534 160.453C112.163 160.578 111.895 160.813 111.73 161.159C111.565 161.505 111.547 161.867 111.675 162.246C111.8 162.617 112.036 162.889 112.385 163.062C112.725 163.237 113.077 163.264 113.441 163.141L115.916 162.307L115.01 159.618L112.534 160.453Z" fill="white"/>
<path d="M108.767 165.801C108.608 166.64 108.072 167.173 107.158 167.402L106.882 166.299C107.405 166.194 107.815 165.945 108.112 165.553C108.409 165.16 108.474 164.633 108.308 163.97L107.503 160.757L108.557 160.492L110.077 166.555L109.022 166.819L108.767 165.801Z" fill="white"/>
<path d="M105.257 168.818C105.462 168.778 105.647 168.814 105.813 168.926C105.98 169.038 106.082 169.192 106.12 169.388C106.158 169.585 106.121 169.766 106.009 169.932C105.899 170.106 105.741 170.214 105.537 170.253C105.341 170.292 105.159 170.251 104.991 170.13C104.825 170.018 104.723 169.864 104.684 169.668C104.646 169.472 104.683 169.29 104.795 169.124C104.907 168.958 105.061 168.856 105.257 168.818ZM104.386 161.461L105.58 167.596L104.513 167.804L103.318 161.669L104.386 161.461Z" fill="white"/>
<path d="M97.668 168.801L96.6012 168.933L95.8647 162.991C95.7509 162.073 95.9729 161.324 96.5306 160.742C97.0873 160.153 97.7998 159.804 98.6682 159.697C99.3629 159.61 99.9789 159.668 100.516 159.871C101.052 160.064 101.479 160.389 101.796 160.846L100.919 161.496C100.494 160.843 99.7769 160.579 98.7679 160.704C98.1229 160.784 97.6394 161.016 97.3175 161.401C96.9874 161.786 96.8587 162.272 96.9315 162.859L97.0407 163.74C97.484 162.845 98.2101 162.335 99.2191 162.21C100.104 162.101 100.891 162.322 101.581 162.875C102.271 163.428 102.672 164.155 102.784 165.056C102.895 165.957 102.684 166.756 102.149 167.452C101.615 168.157 100.905 168.564 100.02 168.673C99.0029 168.8 98.1748 168.487 97.5358 167.734L97.668 168.801ZM100.877 163.693C100.402 163.323 99.8512 163.178 99.2227 163.255C98.5941 163.333 98.0951 163.609 97.7256 164.083C97.3561 164.557 97.2103 165.109 97.2882 165.737C97.3651 166.357 97.6406 166.852 98.1146 167.222C98.5887 167.591 99.14 167.737 99.7685 167.659C100.397 167.581 100.896 167.305 101.266 166.831C101.635 166.357 101.781 165.81 101.704 165.19C101.627 164.561 101.351 164.062 100.877 163.693Z" fill="white"/>
<path d="M91.48 169.295C90.7469 169.315 90.1533 169.098 89.6992 168.643C89.2453 168.197 89.0077 167.578 88.9863 166.787L88.8826 162.951L89.9697 162.921L90.0717 166.695C90.0854 167.203 90.2335 167.591 90.5158 167.858C90.7984 168.134 91.1812 168.265 91.6644 168.252C92.2058 168.238 92.6386 168.055 92.9625 167.705C93.2868 167.362 93.4394 166.841 93.4205 166.142L93.331 162.83L94.4181 162.801L94.6545 171.548L93.5674 171.577L93.4755 168.178C93.0532 168.898 92.388 169.271 91.48 169.295Z" fill="white"/>
<path d="M83.4001 167.838L85.0599 167.934L85.2558 164.552C85.2736 164.245 85.2282 164.021 85.1194 163.881C85.0019 163.749 84.8185 163.671 84.5694 163.649C84.3199 163.634 84.0116 163.625 83.6445 163.62L83.7009 162.647C84.6566 162.577 85.3469 162.692 85.7719 162.992C86.1965 163.301 86.3863 163.842 86.3415 164.615L86.1455 167.997L87.381 168.069L87.3202 169.117L86.0848 169.045L86.0024 170.468L84.8979 170.73L84.9991 168.982L83.3394 168.886L83.4001 167.838Z" fill="white"/>
<path d="M74.4311 161.058C74.6509 161.106 74.8212 161.224 74.9421 161.413C75.063 161.601 75.0994 161.805 75.0513 162.025C75.0033 162.245 74.885 162.415 74.6965 162.536C74.508 162.657 74.3039 162.693 74.0841 162.645C73.8561 162.595 73.6858 162.477 73.573 162.29C73.4522 162.102 73.4158 161.898 73.4638 161.678C73.5118 161.458 73.6301 161.288 73.8186 161.167C73.999 161.044 74.2031 161.008 74.4311 161.058Z" fill="white"/>
<path d="M161.142 103.408C161.178 103.186 161.287 103.009 161.468 102.878C161.65 102.747 161.851 102.699 162.074 102.735C162.296 102.771 162.472 102.879 162.604 103.061C162.735 103.242 162.782 103.444 162.747 103.666C162.71 103.897 162.601 104.073 162.421 104.196C162.239 104.327 162.038 104.375 161.815 104.339C161.593 104.304 161.417 104.195 161.285 104.014C161.153 103.84 161.105 103.638 161.142 103.408Z" fill="white"/>
<path d="M58.667 165.321C57.5694 164.856 56.8255 164.08 56.4352 162.992C56.0339 161.909 56.0719 160.803 56.5491 159.675C57.0263 158.546 57.795 157.745 58.8553 157.27C59.9046 156.8 60.978 156.798 62.0755 157.262L65.2185 158.591L61.8099 166.65L58.667 165.321ZM61.647 158.275C60.8258 157.928 60.0325 157.931 59.2671 158.286C58.5018 158.641 57.9373 159.248 57.5737 160.108C57.2101 160.967 57.1675 161.795 57.446 162.592C57.7244 163.388 58.2742 163.96 59.0955 164.307L61.1677 165.184L63.7193 159.151L61.647 158.275Z" fill="white"/>
<path d="M52.6306 153.389C53.4992 153.147 54.3341 153.249 55.1351 153.695C55.9361 154.141 56.463 154.796 56.7157 155.662C56.9612 156.523 56.859 157.358 56.4092 158.166C55.9595 158.975 55.3039 159.501 54.4425 159.747C53.5739 159.988 52.739 159.886 51.938 159.44C51.137 158.995 50.6101 158.339 50.3574 157.474C50.1046 156.608 50.2032 155.771 50.6529 154.963C51.1027 154.155 51.7619 153.63 52.6306 153.389ZM54.6184 154.624C54.0723 154.32 53.5102 154.25 52.9322 154.415C52.3542 154.579 51.9112 154.939 51.6032 155.492C51.2953 156.045 51.2236 156.611 51.3884 157.189C51.5531 157.767 51.9085 158.208 52.4546 158.512C52.9935 158.812 53.552 158.879 54.13 158.715C54.708 158.55 55.151 158.191 55.459 157.638C55.7669 157.084 55.8385 156.518 55.6738 155.94C55.5091 155.362 55.1573 154.923 54.6184 154.624Z" fill="white"/>
<path d="M41.8444 152.642L40.9173 151.983L46.1174 148.011L47.0242 148.656L45.5367 153.273L49.4083 150.351L50.3151 150.995L48.2733 157.212L47.3462 156.553L48.9774 151.885L45.0232 154.902L44.1674 154.293L45.7243 149.557L41.8444 152.642Z" fill="white"/>
<path d="M37.3068 148.921C36.7608 148.431 36.4791 147.865 36.4618 147.223C36.4389 146.587 36.6917 145.974 37.2201 145.384L39.7818 142.527L40.5915 143.253L38.0716 146.064C37.7323 146.442 37.5732 146.826 37.5944 147.214C37.61 147.609 37.7978 147.967 38.1576 148.29C38.5609 148.651 39.0007 148.816 39.477 148.784C39.9477 148.759 40.4167 148.485 40.884 147.964L43.0952 145.498L43.9049 146.224L39.7328 150.877L38.9231 150.151L39.5239 149.481C38.7222 149.714 37.9832 149.527 37.3068 148.921Z" fill="white"/>
<path d="M38.7003 141.363L32.1548 147.721L31.3971 146.941L37.9426 140.583L38.7003 141.363Z" fill="white"/>
<path d="M32.8757 136.002C33.7737 136.083 34.5185 136.474 35.1103 137.174C35.7021 137.874 35.9633 138.674 35.8939 139.572C35.8191 140.465 35.4285 141.21 34.7221 141.807C34.0156 142.404 33.2162 142.665 32.3236 142.591C31.4257 142.509 30.6809 142.119 30.0891 141.419C29.4973 140.719 29.2361 139.919 29.3055 139.02C29.3749 138.121 29.7628 137.373 30.4692 136.776C31.1757 136.179 31.9778 135.921 32.8757 136.002ZM34.2989 137.86C33.8954 137.383 33.3942 137.119 32.7952 137.069C32.1963 137.019 31.655 137.198 31.1713 137.607C30.6877 138.016 30.4207 138.52 30.3705 139.118C30.3203 139.717 30.497 140.256 30.9005 140.733C31.2986 141.204 31.7971 141.464 32.3961 141.515C32.995 141.565 33.5363 141.385 34.02 140.977C34.5036 140.568 34.7706 140.064 34.8208 139.465C34.871 138.866 34.697 138.331 34.2989 137.86Z" fill="white"/>
<path d="M24.2726 133.333L23.6589 132.435L28.8185 128.908L29.4322 129.806L28.5448 130.412C29.5315 130.394 30.3165 130.811 30.8996 131.664C31.3934 132.387 31.5529 133.181 31.3781 134.048C31.1964 134.919 30.7272 135.613 29.9704 136.13C29.2137 136.648 28.3999 136.831 27.529 136.679C26.6513 136.532 25.9655 136.097 25.4717 135.375C24.8886 134.522 24.7847 133.639 25.1601 132.726L24.2726 133.333ZM29.9552 132.143C29.5978 131.621 29.1237 131.304 28.533 131.193C27.9355 131.086 27.3753 131.212 26.8524 131.569C26.3296 131.927 26.0127 132.401 25.9016 132.992C25.7838 133.587 25.9035 134.146 26.261 134.669C26.6137 135.185 27.0888 135.496 27.6864 135.602C28.2771 135.713 28.8339 135.59 29.3567 135.233C29.8796 134.875 30.1999 134.399 30.3178 133.803C30.4288 133.213 30.3079 132.659 29.9552 132.143Z" fill="white"/>
<path d="M18.176 127.772L17.6543 126.817L25.3314 122.619L25.8532 123.574L24.91 124.089C25.8937 124.169 26.6335 124.662 27.1292 125.568C27.5491 126.336 27.629 127.142 27.3692 127.987C27.1021 128.836 26.5664 129.481 25.7621 129.92C24.9579 130.36 24.1299 130.462 23.2784 130.224C22.4195 129.991 21.7802 129.491 21.3604 128.723C20.8646 127.816 20.8487 126.927 21.3127 126.056L18.176 127.772ZM26.142 125.952C25.8382 125.396 25.3978 125.034 24.821 124.865C24.2369 124.7 23.667 124.769 23.1114 125.073C22.5557 125.377 22.1933 125.817 22.0244 126.394C21.8481 126.975 21.9118 127.543 22.2157 128.099C22.5156 128.647 22.9575 129.004 23.5417 129.169C24.1185 129.338 24.6847 129.27 25.2404 128.966C25.7961 128.662 26.162 128.22 26.3383 127.639C26.5073 127.063 26.4419 126.5 26.142 125.952Z" fill="white"/>
<path d="M17.3852 115.04C17.4291 114.599 17.5798 114.208 17.8372 113.866C18.0917 113.517 18.4383 113.263 18.8771 113.104C19.5352 112.865 20.1713 112.896 20.7854 113.196C21.3995 113.497 21.8272 113.98 22.0686 114.646L23.3549 118.195L15.1285 121.177L13.9359 117.886C13.7031 117.244 13.7212 116.621 13.9902 116.018C14.2593 115.415 14.7111 114.999 15.3457 114.769C16.0744 114.505 16.7542 114.595 17.3852 115.04ZM14.9583 117.515L15.7548 119.713L18.2697 118.802L17.4733 116.604C17.3483 116.259 17.1218 116.013 16.7938 115.866C16.4657 115.719 16.1254 115.71 15.7728 115.837C15.4281 115.962 15.1783 116.19 15.0235 116.521C14.858 116.847 14.8362 117.179 14.9583 117.515ZM21.0462 115.017C20.9127 114.648 20.6713 114.386 20.3219 114.229C19.9725 114.072 19.6097 114.061 19.2337 114.198C18.8654 114.331 18.5989 114.574 18.4341 114.926C18.2664 115.271 18.2479 115.623 18.3785 115.983L19.2687 118.44L21.9364 117.473L21.0462 115.017Z" fill="white"/>
<path d="M15.6569 111.527C14.8146 111.387 14.2686 110.863 14.0189 109.955L15.1156 109.653C15.233 110.174 15.4911 110.578 15.8901 110.866C16.289 111.154 16.8179 111.207 17.4768 111.026L20.6707 110.147L20.9591 111.196L14.9329 112.854L14.6445 111.805L15.6569 111.527Z" fill="white"/>
<path d="M12.5216 107.953C12.5661 108.157 12.5342 108.343 12.4261 108.512C12.3179 108.68 12.1662 108.786 11.9708 108.829C11.7754 108.871 11.5934 108.839 11.4247 108.731C11.2479 108.624 11.1373 108.469 11.0928 108.266C11.0501 108.07 11.0869 107.887 11.2032 107.717C11.3113 107.548 11.4631 107.443 11.6585 107.4C11.8539 107.357 12.0359 107.39 12.2045 107.498C12.3732 107.606 12.4789 107.758 12.5216 107.953ZM19.8561 106.913L13.7503 108.248L13.5181 107.185L19.6239 105.851L19.8561 106.913Z" fill="white"/>
<path d="M12.3695 100.397L12.2127 99.3336L18.1362 98.4604C19.0513 98.3255 19.8059 98.5302 20.4 99.0744C21.0022 99.6173 21.3672 100.322 21.4948 101.187C21.5969 101.88 21.5531 102.497 21.3634 103.039C21.1819 103.579 20.8669 104.013 20.4181 104.341L19.7478 103.479C20.3905 103.039 20.6377 102.316 20.4895 101.31C20.3947 100.667 20.1515 100.189 19.7601 99.8763C19.3674 99.5551 18.8783 99.4377 18.293 99.5239L17.415 99.6534C18.3196 100.076 18.8461 100.79 18.9943 101.796C19.1244 102.678 18.921 103.47 18.3844 104.173C17.8478 104.875 17.1301 105.293 16.2315 105.425C15.3329 105.558 14.5295 105.364 13.8212 104.845C13.1047 104.328 12.6815 103.628 12.5514 102.746C12.402 101.732 12.6958 100.897 13.433 100.24L12.3695 100.397ZM17.5505 103.487C17.909 103.005 18.042 102.45 17.9497 101.824C17.8573 101.197 17.5699 100.705 17.0875 100.346C16.6051 99.9875 16.0506 99.8545 15.424 99.9468C14.8057 100.038 14.3173 100.325 13.9588 100.807C13.6003 101.29 13.4673 101.844 13.5596 102.471C13.652 103.097 13.9394 103.59 14.4218 103.948C14.9042 104.307 15.4546 104.44 16.0729 104.349C16.6995 104.257 17.192 103.97 17.5505 103.487Z" fill="white"/>
<path d="M11.7342 94.2181C11.7003 93.4856 11.9061 92.8879 12.3519 92.4251C12.7893 91.9627 13.4034 91.7132 14.1942 91.6765L18.0276 91.4989L18.0779 92.5852L14.307 92.7599C13.7992 92.7835 13.4143 92.939 13.1523 93.2264C12.882 93.5142 12.7581 93.8995 12.7804 94.3824C12.8055 94.9234 12.9964 95.3526 13.3531 95.6697C13.7015 95.9873 14.2254 96.1298 14.9246 96.0974L18.2336 95.9441L18.2839 97.0304L9.54329 97.4355L9.49295 96.3491L12.8893 96.1918C12.1613 95.7833 11.7763 95.1255 11.7342 94.2181Z" fill="white"/>
<path d="M13.0107 86.053L12.9465 87.7142L16.3315 87.8449C16.6396 87.8568 16.8625 87.8071 17.0003 87.6956C17.13 87.5755 17.2038 87.3907 17.2218 87.1413C17.2315 86.8914 17.235 86.583 17.2325 86.216L18.2068 86.2536C18.2951 87.2077 18.1933 87.9001 17.9014 88.3309C17.6013 88.7613 17.064 88.9615 16.2895 88.9316L12.9046 88.8009L12.8568 90.0375L11.8076 89.997L11.8553 88.7604L10.4314 88.7054L10.1486 87.6062L11.8973 87.6737L11.9615 86.0124L13.0107 86.053Z" fill="white"/>
<path d="M19.5342 77.1834C19.4912 77.4042 19.3769 77.5772 19.1912 77.7024C19.0055 77.8275 18.8022 77.8686 18.5814 77.8256C18.3605 77.7826 18.1875 77.6683 18.0624 77.4826C17.9372 77.2969 17.8961 77.0937 17.9391 76.8728C17.9837 76.6438 18.0981 76.4708 18.2822 76.3538C18.4678 76.2287 18.6711 76.1876 18.892 76.2306C19.1128 76.2736 19.2858 76.3879 19.411 76.5736C19.5377 76.7511 19.5788 76.9543 19.5342 77.1834Z" fill="white"/>
<path d="M14.933 61.3441C15.3724 60.2364 16.1317 59.4753 17.2106 59.0606C18.2849 58.6352 19.3914 58.6483 20.5301 59.1001C21.6687 59.5519 22.4871 60.3024 22.9852 61.3518C23.4787 62.3903 23.5057 63.4634 23.0662 64.571L21.8077 67.743L13.6745 64.5161L14.933 61.3441ZM22.0437 64.1654C22.3726 63.3365 22.351 62.5435 21.979 61.7863C21.6071 61.0291 20.9873 60.4784 20.1198 60.1342C19.2522 59.79 18.4235 59.766 17.6336 60.0622C16.8436 60.3584 16.2843 60.921 15.9554 61.7498L15.1256 63.8412L21.2139 66.2568L22.0437 64.1654Z" fill="white"/>
<path d="M26.7469 54.9803C27.0075 55.8434 26.9239 56.6803 26.496 57.491C26.0682 58.3017 25.4244 58.843 24.5648 59.1148C23.7091 59.3793 22.8722 59.2957 22.0542 58.864C21.2361 58.4322 20.6948 57.7885 20.4303 56.9327C20.1697 56.0697 20.2533 55.2328 20.6812 54.4221C21.1091 53.6114 21.7528 53.0701 22.6124 52.7982C23.472 52.5264 24.3109 52.6063 25.1289 53.0381C25.947 53.4698 26.4863 54.1172 26.7469 54.9803ZM25.5564 56.9951C25.8481 56.4423 25.9052 55.8788 25.7277 55.3046C25.5502 54.7304 25.1814 54.2954 24.6213 53.9998C24.0612 53.7042 23.494 53.6452 22.9198 53.8227C22.3456 54.0001 21.9126 54.3653 21.6209 54.918C21.333 55.4634 21.2779 56.0232 21.4554 56.5974C21.6328 57.1717 22.0016 57.6066 22.5618 57.9022C23.1219 58.1978 23.689 58.2569 24.2633 58.0794C24.8375 57.9019 25.2685 57.5404 25.5564 56.9951Z" fill="white"/>
<path d="M27.0942 44.4091L27.7327 43.4677L31.8176 48.5794L31.1931 49.5001L26.5446 48.1144L29.5513 51.9209L28.9268 52.8416L22.6668 50.9368L23.3053 49.9954L28.0082 51.5237L24.905 47.6367L25.4944 46.7677L30.2638 48.2203L27.0942 44.4091Z" fill="white"/>
<path d="M30.7223 39.7221C31.1998 39.1655 31.7594 38.8715 32.4012 38.8402C33.0367 38.8034 33.6548 39.0428 34.2557 39.5582L37.1682 42.0569L36.4601 42.8823L33.595 40.4243C33.2092 40.0933 32.8224 39.9427 32.4346 39.9723C32.0405 39.9965 31.6861 40.1921 31.3714 40.5589C31.0187 40.97 30.8635 41.4133 30.9058 41.8888C30.9417 42.3588 31.2253 42.8217 31.7566 43.2775L34.2707 45.4344L33.5626 46.2597L28.819 42.1902L29.5271 41.3648L30.2102 41.9508C29.9602 41.1544 30.1309 40.4115 30.7223 39.7221Z" fill="white"/>
<path d="M38.3255 40.9056L31.8265 34.5003L32.5898 33.7258L39.0889 40.1311L38.3255 40.9056Z" fill="white"/>
<path d="M43.58 34.923C43.5184 35.8225 43.1442 36.5757 42.4572 37.1826C41.7703 37.7896 40.9767 38.0681 40.0765 38.0184C39.1825 37.9631 38.4293 37.5888 37.8169 36.8956C37.2044 36.2024 36.9259 35.4088 36.9812 34.5148C37.0427 33.6154 37.417 32.8622 38.1039 32.2552C38.7909 31.6483 39.5845 31.3697 40.4847 31.4195C41.3849 31.4693 42.1412 31.8408 42.7536 32.534C43.3661 33.2272 43.6415 34.0236 43.58 34.923ZM41.7537 36.3864C42.2221 35.9726 42.4749 35.4657 42.512 34.8658C42.5491 34.2659 42.358 33.7287 41.9387 33.254C41.5193 32.7794 41.0097 32.5235 40.4098 32.4864C39.8099 32.4493 39.2758 32.6377 38.8074 33.0515C38.3453 33.4598 38.0956 33.9639 38.0585 34.5638C38.0214 35.1637 38.2125 35.7009 38.6319 36.1756C39.0512 36.6502 39.5608 36.9061 40.1607 36.9432C40.7606 36.9803 41.2916 36.7947 41.7537 36.3864Z" fill="white"/>
<path d="M45.8089 26.4134L46.6907 25.7769L50.3487 30.8446L49.467 31.4811L48.8378 30.6094C48.8815 31.5954 48.4844 32.3908 47.6465 32.9956C46.937 33.5077 46.147 33.6875 45.2763 33.5349C44.4007 33.3756 43.6947 32.9243 43.1581 32.181C42.6216 31.4377 42.418 30.6289 42.5473 29.7544C42.6718 28.8732 43.0888 28.1766 43.7982 27.6644C44.6361 27.0596 45.516 26.9332 46.4381 27.2851L45.8089 26.4134ZM47.1434 32.0638C47.657 31.6931 47.9617 31.2111 48.0575 30.6177C48.1485 30.0176 48.0086 29.4608 47.6379 28.9473C47.2673 28.4337 46.7852 28.1291 46.1919 28.0332C45.5937 27.9306 45.0378 28.0646 44.5243 28.4353C44.0175 28.8011 43.7186 29.2841 43.6277 29.8842C43.5318 30.4775 43.6692 31.031 44.0399 31.5445C44.4106 32.058 44.895 32.3661 45.4933 32.4687C46.0866 32.5645 46.6367 32.4296 47.1434 32.0638Z" fill="white"/>
<path d="M51.5375 19.97L52.4798 19.4273L56.8468 27.0096L55.9044 27.5524L55.3679 26.6208C55.3102 27.6061 54.8337 28.3566 53.9383 28.8723C53.18 29.309 52.3757 29.4068 51.5252 29.1657C50.6706 28.9175 50.0145 28.3962 49.5571 27.6018C49.0996 26.8075 48.98 25.982 49.1983 25.1254C49.4124 24.2616 49.8986 23.6114 50.6568 23.1747C51.5523 22.659 52.4405 22.6234 53.3217 23.068L51.5375 19.97ZM53.5334 27.8938C54.0822 27.5777 54.4347 27.1294 54.5909 26.5491C54.7429 25.9614 54.6609 25.3932 54.3448 24.8444C54.0287 24.2956 53.5805 23.9431 53.0001 23.7869C52.4155 23.6235 51.8488 23.6998 51.3 24.0159C50.7584 24.3279 50.4116 24.7776 50.2596 25.3652C50.1034 25.9456 50.1834 26.5102 50.4994 27.0591C50.8155 27.6079 51.2658 27.964 51.8504 28.1274C52.4308 28.2836 52.9918 28.2057 53.5334 27.8938Z" fill="white"/>
<path d="M63.815 19.0438C64.2573 19.0761 64.6526 19.2164 65.0007 19.4647C65.3566 19.71 65.6197 20.0499 65.7902 20.4843C66.0459 21.1359 66.0317 21.7726 65.7475 22.3944C65.4634 23.0162 64.9916 23.4564 64.3322 23.7152L60.8181 25.0942L57.6217 16.949L60.8798 15.6704C61.5159 15.4208 62.1387 15.4225 62.7483 15.6757C63.358 15.9288 63.786 16.3695 64.0326 16.9979C64.3157 17.7193 64.2432 18.4013 63.815 19.0438ZM61.2771 16.6827L59.1011 17.5366L60.0783 20.0268L62.2543 19.1728C62.5956 19.0389 62.8354 18.806 62.9738 18.4742C63.1121 18.1424 63.1128 17.802 62.9758 17.4529C62.8419 17.1116 62.6075 16.8678 62.2726 16.7217C61.9425 16.5648 61.6106 16.5518 61.2771 16.6827ZM63.935 22.7028C64.2995 22.5598 64.5557 22.3115 64.7035 21.9581C64.8513 21.6047 64.8521 21.2418 64.706 20.8695C64.5629 20.5049 64.3131 20.2448 63.9567 20.0893C63.608 19.9307 63.2552 19.9214 62.8984 20.0615L60.4664 21.0158L61.503 23.6572L63.935 22.7028Z" fill="white"/>
<path d="M67.5092 17.1312C67.63 16.2859 68.1414 15.7281 69.0435 15.4578L69.37 16.5475C68.8519 16.6766 68.4536 16.9439 68.1749 17.3493C67.8962 17.7547 67.8549 18.2847 68.0511 18.9392L69.0019 22.1123L67.9602 22.4245L66.1661 16.4375L67.2078 16.1254L67.5092 17.1312Z" fill="white"/>
<path d="M71.2252 13.85C71.0227 13.8991 70.836 13.8716 70.6649 13.7673C70.4938 13.663 70.3847 13.5137 70.3375 13.3194C70.2904 13.125 70.3189 12.9423 70.4232 12.7712C70.5255 12.592 70.6779 12.4779 70.8803 12.4288C71.0747 12.3816 71.2584 12.4142 71.4314 12.5266C71.6025 12.6308 71.7116 12.7801 71.7588 12.9745C71.8059 13.1689 71.7774 13.3516 71.6731 13.5227C71.5689 13.6937 71.4195 13.8029 71.2252 13.85ZM72.4327 21.1589L70.9589 15.0851L72.0158 14.8287L73.4895 20.9024L72.4327 21.1589Z" fill="white"/>
<path d="M78.697 13.5349L79.7567 13.3537L80.7658 19.2555C80.9217 20.1673 80.7344 20.9264 80.204 21.5328C79.6751 22.1474 78.9793 22.5284 78.1168 22.6759C77.4269 22.7939 76.8089 22.7643 76.2628 22.5871C75.7182 22.4181 75.2772 22.1131 74.9397 21.672L75.7855 20.9821C76.2403 21.6145 76.9687 21.845 77.9708 21.6737C78.6115 21.5641 79.0838 21.3101 79.3876 20.9115C79.6997 20.5115 79.8059 20.0199 79.7061 19.4367L79.5566 18.5619C79.1549 19.476 78.453 20.0187 77.4509 20.1901C76.5719 20.3404 75.7752 20.1553 75.0606 19.635C74.346 19.1146 73.9122 18.4068 73.7591 17.5115C73.606 16.6161 73.7807 15.8085 74.2832 15.0885C74.7843 14.3603 75.4744 13.921 76.3533 13.7707C77.3636 13.598 78.2053 13.8726 78.8782 14.5945L78.697 13.5349ZM75.727 18.7855C76.2175 19.1328 76.7749 19.2531 77.3992 19.1464C78.0235 19.0396 78.5093 18.741 78.8566 18.2504C79.2039 17.7599 79.3241 17.2025 79.2174 16.5782C79.1121 15.9621 78.8141 15.4805 78.3236 15.1332C77.833 14.7859 77.2756 14.6656 76.6513 14.7723C76.0271 14.8791 75.5413 15.1777 75.194 15.6683C74.8467 16.1588 74.7257 16.7121 74.831 17.3282C74.9378 17.9525 75.2364 18.4382 75.727 18.7855Z" fill="white"/>
<path d="M84.8036 12.7528C85.5351 12.702 86.1374 12.894 86.6104 13.3289C87.0828 13.7554 87.3464 14.3636 87.4014 15.1534L87.6676 18.9816L86.5828 19.0571L86.3208 15.2912C86.2856 14.7841 86.1212 14.4029 85.8278 14.1476C85.5338 13.8841 85.1457 13.769 84.6636 13.8026C84.1232 13.8402 83.6986 14.0409 83.3898 14.4049C83.0804 14.7606 82.95 15.2876 82.9985 15.9859L83.2284 19.2904L82.1435 19.3658L81.5364 10.6369L82.6213 10.5615L82.8572 13.9533C83.2486 13.216 83.8974 12.8159 84.8036 12.7528Z" fill="white"/>
<path d="M93.037 13.8311L91.3747 13.8054L91.3224 17.1925C91.3176 17.5008 91.3725 17.7225 91.4871 17.8577C91.6102 17.9846 91.7966 18.0541 92.0465 18.0663C92.2964 18.0702 92.6049 18.0666 92.9717 18.0556L92.9567 19.0305C92.0049 19.1408 91.3103 19.0551 90.8729 18.7733C90.4357 18.4832 90.223 17.9507 90.235 17.1757L90.2873 13.7887L89.0499 13.7695L89.0662 12.7197L90.3035 12.7388L90.3255 11.3139L91.4179 11.0058L91.3909 12.7556L93.0532 12.7812L93.037 13.8311Z" fill="white"/>
<path d="M101.988 20.1225C101.767 20.0846 101.591 19.9742 101.462 19.7915C101.332 19.6087 101.287 19.4065 101.324 19.1847C101.362 18.9629 101.473 18.7873 101.655 18.6579C101.838 18.5285 102.04 18.4828 102.262 18.5207C102.492 18.5601 102.668 18.6704 102.789 18.8517C102.918 19.0345 102.964 19.2368 102.926 19.4585C102.888 19.6803 102.778 19.8559 102.595 19.9853C102.421 20.1161 102.218 20.1618 101.988 20.1225Z" fill="white"/>
<path d="M117.929 15.1989C119.047 15.6133 119.825 16.3553 120.263 17.4246C120.713 18.4891 120.725 19.5956 120.299 20.7441C119.873 21.8926 119.141 22.7277 118.103 23.2493C117.076 23.766 116.003 23.8171 114.886 23.4027L111.687 22.2158L114.73 14.0121L117.929 15.1989ZM115.269 22.3713C116.105 22.6814 116.897 22.642 117.646 22.2531C118.394 21.8642 118.931 21.2323 119.256 20.3572C119.58 19.4821 119.586 18.6531 119.272 17.87C118.958 17.0869 118.383 16.5403 117.547 16.2302L115.437 15.4477L113.159 21.5888L115.269 22.3713Z" fill="white"/>
<path d="M124.144 26.6511C123.288 26.934 122.449 26.8721 121.627 26.4654C120.806 26.0587 120.248 25.4292 119.954 24.5769C119.668 23.7284 119.729 22.8896 120.14 22.0606C120.55 21.2316 121.18 20.6739 122.028 20.3873C122.884 20.1044 123.723 20.1663 124.545 20.573C125.366 20.9797 125.924 21.6092 126.218 22.4614C126.512 23.3137 126.454 24.1543 126.043 24.9833C125.633 25.8123 125 26.3682 124.144 26.6511ZM122.099 25.5132C122.659 25.7905 123.224 25.833 123.793 25.6407C124.363 25.4483 124.788 25.0684 125.069 24.5008C125.35 23.9332 125.394 23.3647 125.202 22.7953C125.01 22.2258 124.633 21.8025 124.073 21.5252C123.521 21.2516 122.96 21.2109 122.39 21.4032C121.821 21.5956 121.395 21.9755 121.114 22.5431C120.833 23.1107 120.789 23.6792 120.981 24.2486C121.174 24.8181 121.546 25.2396 122.099 25.5132Z" fill="white"/>
<path d="M135.15 26.9848L136.105 27.6025L131.084 31.7988L130.15 31.1947L131.433 26.5168L127.694 29.6065L126.76 29.0024L128.526 22.702L129.482 23.3196L128.057 28.055L131.875 24.8672L132.756 25.4373L131.409 30.2375L135.15 26.9848Z" fill="white"/>
<path d="M139.949 30.5375C140.516 31.0027 140.822 31.5558 140.868 32.1967C140.918 32.8312 140.693 33.4544 140.19 34.0664L137.756 37.0328L136.915 36.3429L139.31 33.4248C139.633 33.0318 139.775 32.6419 139.737 32.2548C139.704 31.8613 139.501 31.5113 139.127 31.2047C138.708 30.861 138.262 30.7155 137.787 30.7682C137.318 30.8144 136.861 31.108 136.417 31.6491L134.316 34.2097L133.475 33.5198L137.44 28.6885L138.281 29.3784L137.71 30.0741C138.501 29.8068 139.247 29.9612 139.949 30.5375Z" fill="white"/>
<path d="M138.945 38.1777L145.207 31.5405L145.998 32.2868L139.736 38.924L138.945 38.1777Z" fill="white"/>
<path d="M145.047 43.3097C144.146 43.2678 143.385 42.9101 142.763 42.2365C142.142 41.563 141.846 40.7756 141.876 39.8746C141.912 38.9796 142.269 38.2184 142.949 37.591C143.629 36.9636 144.416 36.6678 145.311 36.7036C146.212 36.7455 146.973 37.1032 147.595 37.7768C148.216 38.4504 148.512 39.2377 148.482 40.1387C148.452 41.0398 148.097 41.8041 147.417 42.4315C146.738 43.0589 145.947 43.3517 145.047 43.3097ZM143.544 41.5158C143.968 41.9751 144.48 42.2167 145.081 42.2407C145.681 42.2648 146.214 42.062 146.68 41.6324C147.145 41.2028 147.39 40.6877 147.414 40.0872C147.438 39.4866 147.238 38.9567 146.814 38.4975C146.396 38.0443 145.886 37.8058 145.286 37.7818C144.685 37.7577 144.152 37.9605 143.687 38.3901C143.221 38.8197 142.977 39.3348 142.953 39.9353C142.929 40.5359 143.126 41.0627 143.544 41.5158Z" fill="white"/>
<path d="M153.619 45.3788L154.275 46.2464L149.288 50.0146L148.633 49.1469L149.49 48.4988C148.506 48.5641 147.702 48.1845 147.079 47.3601C146.551 46.662 146.354 45.8761 146.488 45.0022C146.628 44.1234 147.064 43.4076 147.795 42.855C148.526 42.3023 149.33 42.081 150.207 42.1912C151.091 42.2963 151.797 42.6979 152.324 43.396C152.947 44.2204 153.093 45.0973 152.761 46.0269L153.619 45.3788ZM147.999 46.8367C148.381 47.342 148.87 47.6361 149.465 47.7189C150.067 47.7967 150.621 47.6447 151.126 47.2629C151.631 46.881 151.925 46.3924 152.008 45.7971C152.098 45.1968 151.951 44.644 151.57 44.1387C151.193 43.6401 150.703 43.3519 150.101 43.2741C149.506 43.1912 148.956 43.3407 148.451 43.7226C147.945 44.1044 147.648 44.5955 147.558 45.1958C147.476 45.7911 147.623 46.3381 147.999 46.8367Z" fill="white"/>
<path d="M160.155 50.9333L160.719 51.8635L153.235 56.3968L152.671 55.4667L153.591 54.9097C152.605 54.8738 151.844 54.414 151.308 53.5302C150.855 52.7817 150.74 51.9798 150.962 51.1242C151.191 50.2643 151.698 49.5969 152.482 49.122C153.266 48.647 154.088 48.5092 154.95 48.7086C155.818 48.9036 156.479 49.3753 156.932 50.1237C157.468 51.0075 157.523 51.8948 157.098 52.7855L160.155 50.9333ZM152.278 53.1038C152.606 53.6455 153.062 53.988 153.645 54.1313C154.236 54.2703 154.803 54.1758 155.344 53.8476C155.886 53.5195 156.229 53.0636 156.372 52.4799C156.522 51.8919 156.433 51.327 156.105 50.7853C155.782 50.2507 155.324 49.9139 154.733 49.7749C154.15 49.6316 153.587 49.724 153.045 50.0521C152.504 50.3803 152.157 50.8383 152.007 51.4263C151.864 52.01 151.954 52.5692 152.278 53.1038Z" fill="white"/>
<path d="M161.387 63.2759C161.365 63.7189 161.233 64.1172 160.993 64.4708C160.756 64.8321 160.422 65.1028 159.991 65.283C159.346 65.5533 158.709 65.5533 158.081 65.2832C157.453 65.0131 157.002 64.5513 156.728 63.8979L155.271 60.4156L163.342 57.0372L164.694 60.2658C164.958 60.8961 164.97 61.5188 164.73 62.134C164.491 62.7491 164.06 63.187 163.437 63.4476C162.722 63.7468 162.039 63.6896 161.387 63.2759ZM163.691 60.6856L162.788 58.5294L160.32 59.5623L161.223 61.7185C161.365 62.0567 161.603 62.2913 161.938 62.4221C162.272 62.553 162.613 62.546 162.959 62.4013C163.297 62.2597 163.535 62.0199 163.674 61.6818C163.823 61.3483 163.829 61.0162 163.691 60.6856ZM157.732 63.478C157.883 63.8393 158.137 64.0898 158.493 64.2296C158.85 64.3694 159.213 64.3621 159.582 64.2077C159.943 64.0565 160.198 63.8009 160.345 63.4411C160.496 63.0889 160.497 62.736 160.349 62.3824L159.34 59.9725L156.723 61.0681L157.732 63.478Z" fill="white"/>
<path d="M163.362 66.9125C164.21 67.0141 164.779 67.5127 165.07 68.4084L163.988 68.7595C163.847 68.2445 163.571 67.8523 163.159 67.5829C162.748 67.3134 162.217 67.2842 161.567 67.4951L158.416 68.5177L158.08 67.4833L164.025 65.554L164.361 66.5884L163.362 66.9125Z" fill="white"/>
<path d="M166.685 70.4237C166.631 70.2224 166.655 70.035 166.755 69.8616C166.855 69.6882 167.002 69.5757 167.195 69.5241C167.388 69.4726 167.572 69.4969 167.745 69.5973C167.927 69.6955 168.044 69.8452 168.098 70.0465C168.15 70.2397 168.121 70.4241 168.013 70.5997C167.912 70.7731 167.766 70.8856 167.572 70.9372C167.379 70.9888 167.196 70.9644 167.022 70.864C166.849 70.7637 166.737 70.6169 166.685 70.4237ZM159.405 71.7975L165.444 70.1856L165.725 71.2363L159.686 72.8482L159.405 71.7975Z" fill="white"/>
<path d="M167.174 77.9135L167.379 78.9687L161.502 80.113C160.594 80.2898 159.831 80.12 159.212 79.6037C158.586 79.0889 158.189 78.4021 158.022 77.5433C157.888 76.8562 157.903 76.2376 158.068 75.6877C158.224 75.1394 158.519 74.6914 158.952 74.3439L159.662 75.1737C159.04 75.6428 158.826 76.3764 159.02 77.3743C159.145 78.0123 159.409 78.4786 159.815 78.7732C160.222 79.076 160.716 79.1709 161.297 79.0578L162.168 78.8882C161.245 78.5076 160.686 77.8183 160.492 76.8204C160.321 75.9452 160.488 75.1444 160.992 74.418C161.496 73.6917 162.193 73.2417 163.085 73.0682C163.976 72.8946 164.788 73.0507 165.519 73.5365C166.259 74.0208 166.714 74.7006 166.884 75.5758C167.08 76.5819 166.825 77.4296 166.118 78.119L167.174 77.9135ZM161.856 75.0647C161.52 75.5631 161.413 76.1232 161.534 76.7448C161.655 77.3665 161.965 77.8453 162.463 78.1812C162.961 78.5172 163.521 78.6246 164.143 78.5036C164.757 78.3841 165.231 78.0752 165.567 77.5768C165.903 77.0784 166.011 76.5184 165.89 75.8968C165.769 75.2751 165.459 74.7963 164.96 74.4604C164.462 74.1244 163.906 74.0162 163.293 74.1356C162.671 74.2566 162.192 74.5664 161.856 75.0647Z" fill="white"/>
<path d="M168.088 84.0039C168.156 84.7341 167.978 85.3407 167.554 85.8236C167.139 86.3057 166.537 86.5833 165.749 86.6565L161.928 87.0112L161.827 85.9283L165.586 85.5794C166.092 85.5325 166.469 85.3594 166.718 85.0601C166.974 84.7601 167.08 84.3695 167.036 83.8882C166.986 83.3489 166.775 82.929 166.404 82.6287C166.041 82.3276 165.512 82.2094 164.815 82.2741L161.516 82.5802L161.416 81.4974L170.128 80.6887L170.229 81.7716L166.843 82.0858C167.589 82.4601 168.005 83.0995 168.088 84.0039Z" fill="white"/>
<path d="M167.194 91.8928L167.174 90.2304L163.787 90.2696C163.479 90.2732 163.259 90.3341 163.127 90.4523C163.003 90.5787 162.939 90.767 162.933 91.0171C162.936 91.2671 162.948 91.5753 162.969 91.9417L161.994 91.953C161.858 91.0045 161.925 90.3079 162.195 89.8631C162.473 89.4181 163 89.1912 163.774 89.1822L167.162 89.143L167.147 87.9056L168.197 87.8934L168.212 89.1308L169.637 89.1143L169.974 90.198L168.224 90.2183L168.244 91.8806L167.194 91.8928Z" fill="white"/>
</svg>
