<svg width="14" height="16" viewBox="0 0 14 16" fill="none" xmlns="http://www.w3.org/2000/svg">
<path d="M0.459525 15.5751L7.82566 7.93502L0.465696 0.308594C0.269113 0.427329 0.147461 0.702246 0.147461 1.06211V14.8289C0.150097 15.1888 0.26735 15.4436 0.459525 15.5751V15.5751Z" fill="white"/>
<path d="M8.08957 7.72329L10.2837 5.44724L1.34845 0.365394C1.19799 0.274719 1.02709 0.226825 0.853027 0.226562L8.08869 7.72237L8.08957 7.72329Z" fill="white"/>
<path d="M8.08964 8.14648L0.831055 15.6752C1.01324 15.6783 1.19269 15.629 1.3494 15.5327L10.3023 10.4372L8.08964 8.14648Z" fill="white"/>
<path d="M13.5205 7.29191L10.5471 5.59766L8.29297 7.93582L10.5638 10.2886L13.5196 8.59891C14.1481 8.23996 14.1481 7.64903 13.5205 7.29191Z" fill="white"/>
</svg>
